<?xml version="1.0" standalone="no"?>
<!DOCTYPE svg PUBLIC "-//W3C//DTD SVG 20010904//EN"
 "http://www.w3.org/TR/2001/REC-SVG-20010904/DTD/svg10.dtd">
<svg version="1.0" xmlns="http://www.w3.org/2000/svg"
 width="3200.000000pt" height="2328.000000pt" viewBox="0 0 3200.000000 2328.000000"
 preserveAspectRatio="xMidYMid meet">

<g transform="translate(0.000000,2328.000000) scale(0.100000,-0.100000)"
fill="#000000" stroke="none">
<path d="M14575 23210 c-3 -5 -2 -10 4 -10 5 0 13 5 16 10 3 6 2 10 -4 10 -5
0 -13 -4 -16 -10z"/>
<path d="M13468 21633 c7 -3 16 -2 19 1 4 3 -2 6 -13 5 -11 0 -14 -3 -6 -6z"/>
<path d="M13108 21623 c6 -2 18 -2 25 0 6 3 1 5 -13 5 -14 0 -19 -2 -12 -5z"/>
<path d="M13568 21623 c6 -2 18 -2 25 0 6 3 1 5 -13 5 -14 0 -19 -2 -12 -5z"/>
<path d="M13015 21610 c-27 -7 -27 -8 -5 -8 14 0 39 4 55 8 27 7 27 8 5 8 -14
0 -38 -4 -55 -8z"/>
<path d="M13630 21610 c14 -4 36 -8 50 -8 22 0 22 1 -5 8 -16 4 -39 8 -50 8
-16 0 -15 -2 5 -8z"/>
<path d="M12850 21574 l-35 -14 35 6 c40 7 76 24 50 23 -8 0 -31 -7 -50 -15z"/>
<path d="M13785 21575 c17 -8 37 -14 45 -14 8 0 0 6 -19 14 -42 19 -66 18 -26
0z"/>
<path d="M13880 21545 c14 -8 30 -14 35 -14 6 0 -1 6 -15 14 -14 8 -29 14 -35
14 -5 0 1 -6 15 -14z"/>
<path d="M12710 21535 c-19 -7 -28 -14 -20 -14 8 0 29 6 45 14 39 17 21 18
-25 0z"/>
<path d="M12610 21500 c-8 -5 -10 -10 -5 -10 6 0 17 5 25 10 8 5 11 10 5 10
-5 0 -17 -5 -25 -10z"/>
<path d="M14000 21496 c0 -2 7 -7 16 -10 8 -3 12 -2 9 4 -6 10 -25 14 -25 6z"/>
<path d="M12510 21460 c-9 -6 -10 -10 -3 -10 6 0 15 5 18 10 8 12 4 12 -15 0z"/>
<path d="M14087 21449 c7 -7 15 -10 18 -7 3 3 -2 9 -12 12 -14 6 -15 5 -6 -5z"/>
<path d="M14124 21431 c7 -11 46 -35 46 -28 0 3 -12 12 -26 22 -15 9 -23 12
-20 6z"/>
<path d="M12400 21415 c-14 -8 -20 -14 -14 -15 5 0 19 7 30 15 24 18 16 19
-16 0z"/>
<path d="M12334 21384 c-18 -14 -18 -14 6 -3 31 14 36 19 24 19 -6 0 -19 -7
-30 -16z"/>
<path d="M14200 21386 c0 -2 8 -10 18 -17 15 -13 16 -12 3 4 -13 16 -21 21
-21 13z"/>
<path d="M14249 21346 c13 -16 51 -41 51 -33 0 2 -15 14 -32 27 -21 15 -28 17
-19 6z"/>
<path d="M12230 21335 c-14 -8 -20 -14 -14 -15 5 0 19 7 30 15 24 18 16 19
-16 0z"/>
<path d="M12150 21290 c-9 -6 -10 -10 -3 -10 6 0 15 5 18 10 8 12 4 12 -15 0z"/>
<path d="M14345 21270 c10 -11 20 -20 23 -20 3 0 -3 9 -13 20 -10 11 -20 20
-23 20 -3 0 3 -9 13 -20z"/>
<path d="M12086 21255 c-11 -8 -15 -15 -9 -15 6 0 16 7 23 15 16 19 11 19 -14
0z"/>
<path d="M17168 21243 c34 -2 90 -2 125 0 34 2 6 3 -63 3 -69 0 -97 -1 -62 -3z"/>
<path d="M12020 21219 c-17 -13 -18 -17 -5 -10 33 17 51 31 40 31 -5 0 -21
-10 -35 -21z"/>
<path d="M14450 21175 c35 -36 67 -65 69 -65 3 0 -24 29 -59 65 -35 36 -67 65
-69 65 -3 0 24 -29 59 -65z"/>
<path d="M16900 21215 c-25 -7 -36 -13 -25 -14 11 0 40 6 65 13 56 18 21 19
-40 1z"/>
<path d="M17545 21214 c28 -7 59 -13 70 -13 11 0 -5 7 -35 14 -72 18 -100 17
-35 -1z"/>
<path d="M11969 21183 c-13 -16 -12 -17 4 -4 16 13 21 21 13 21 -2 0 -10 -8
-17 -17z"/>
<path d="M17668 21193 c7 -3 16 -2 19 1 4 3 -2 6 -13 5 -11 0 -14 -3 -6 -6z"/>
<path d="M16745 21175 c-16 -8 -23 -14 -15 -14 8 0 29 6 45 14 17 7 23 13 15
13 -8 0 -28 -6 -45 -13z"/>
<path d="M17715 21180 c27 -12 43 -12 25 0 -8 5 -22 9 -30 9 -10 0 -8 -3 5 -9z"/>
<path d="M11919 21143 l-24 -28 28 24 c25 23 32 31 24 31 -2 0 -14 -12 -28
-27z"/>
<path d="M17768 21163 c7 -3 16 -2 19 1 4 3 -2 6 -13 5 -11 0 -14 -3 -6 -6z"/>
<path d="M16640 21135 c-14 -8 -20 -14 -15 -14 6 0 21 6 35 14 14 8 21 14 15
14 -5 0 -21 -6 -35 -14z"/>
<path d="M17870 21135 c14 -8 32 -14 40 -14 8 0 0 6 -19 14 -42 19 -54 19 -21
0z"/>
<path d="M17977 21099 c7 -7 15 -10 18 -7 3 3 -2 9 -12 12 -14 6 -15 5 -6 -5z"/>
<path d="M11854 21078 l-19 -23 23 19 c21 18 27 26 19 26 -2 0 -12 -10 -23
-22z"/>
<path d="M14540 21075 c13 -14 26 -25 28 -25 3 0 -5 11 -18 25 -13 14 -26 25
-28 25 -3 0 5 -11 18 -25z"/>
<path d="M16480 21057 c-51 -31 -86 -57 -77 -57 4 0 20 8 35 19 15 10 43 28
62 40 19 11 31 20 25 20 -5 -1 -26 -11 -45 -22z"/>
<path d="M18086 21055 c10 -8 26 -14 34 -14 9 0 4 6 -10 14 -33 19 -49 19 -24
0z"/>
<path d="M11815 21024 c-9 -15 -12 -23 -6 -20 11 7 35 46 28 46 -3 0 -12 -12
-22 -26z"/>
<path d="M14570 21036 c0 -2 8 -10 18 -17 15 -13 16 -12 3 4 -13 16 -21 21
-21 13z"/>
<path d="M18170 21020 c19 -11 40 -19 45 -19 6 0 -6 8 -25 19 -19 11 -39 19
-45 19 -5 0 6 -8 25 -19z"/>
<path d="M14600 20996 c0 -2 8 -10 18 -17 15 -13 16 -12 3 4 -13 16 -21 21
-21 13z"/>
<path d="M18255 20980 c17 -11 35 -20 40 -20 6 0 -5 9 -23 20 -42 26 -56 26
-17 0z"/>
<path d="M13086 20981 c-17 -3 57 -6 164 -6 107 0 181 3 164 6 -16 4 -90 7
-164 7 -74 0 -148 -3 -164 -7z"/>
<path d="M16350 20969 c-22 -18 -22 -19 -3 -10 12 6 25 16 28 21 9 15 3 12
-25 -11z"/>
<path d="M11775 20949 c-4 -6 -5 -12 -2 -15 2 -3 7 2 10 11 7 17 1 20 -8 4z"/>
<path d="M12885 20950 c-14 -7 -8 -8 20 -3 22 3 42 7 44 9 9 8 -45 2 -64 -6z"/>
<path d="M13548 20953 c7 -3 16 -2 19 1 4 3 -2 6 -13 5 -11 0 -14 -3 -6 -6z"/>
<path d="M13595 20940 c27 -12 43 -12 25 0 -8 5 -22 9 -30 9 -10 0 -8 -3 5 -9z"/>
<path d="M14640 20946 c0 -2 8 -10 18 -17 15 -13 16 -12 3 4 -13 16 -21 21
-21 13z"/>
<path d="M16250 20889 l-65 -61 63 52 c55 46 79 70 70 70 -2 0 -32 -28 -68
-61z"/>
<path d="M18344 20936 c11 -9 24 -16 30 -16 12 0 7 5 -24 19 -24 11 -24 11 -6
-3z"/>
<path d="M12725 20910 c-25 -11 1 -11 35 0 20 6 21 8 5 8 -11 0 -29 -3 -40 -8z"/>
<path d="M13680 20917 c0 -3 15 -10 32 -16 18 -6 28 -7 23 -2 -12 10 -55 25
-55 18z"/>
<path d="M13781 20876 c2 -2 15 -9 29 -15 24 -11 24 -11 6 3 -16 13 -49 24
-35 12z"/>
<path d="M18489 20861 c13 -12 28 -21 34 -21 12 0 11 0 -28 24 l-30 17 24 -20z"/>
<path d="M11753 20820 c0 -30 2 -43 4 -27 2 15 2 39 0 55 -2 15 -4 2 -4 -28z"/>
<path d="M12490 20825 c-14 -8 -20 -14 -15 -14 6 0 21 6 35 14 14 8 21 14 15
14 -5 0 -21 -6 -35 -14z"/>
<path d="M18540 20836 c0 -2 14 -14 30 -26 17 -12 30 -19 30 -16 0 2 -13 14
-30 26 -16 12 -30 19 -30 16z"/>
<path d="M14720 20826 c0 -2 8 -10 18 -17 15 -13 16 -12 3 4 -13 16 -21 21
-21 13z"/>
<path d="M16125 20768 l-40 -43 43 40 c23 21 42 40 42 42 0 8 -9 0 -45 -39z"/>
<path d="M12394 20784 c-18 -14 -18 -14 6 -3 31 14 36 19 24 19 -6 0 -19 -7
-30 -16z"/>
<path d="M13930 20797 c0 -3 12 -12 26 -22 15 -9 23 -12 20 -6 -7 11 -46 35
-46 28z"/>
<path d="M18640 20755 c19 -19 36 -35 39 -35 3 0 -10 16 -29 35 -19 19 -36 35
-39 35 -3 0 10 -16 29 -35z"/>
<path d="M12304 20744 c-18 -14 -18 -14 6 -3 31 14 36 19 24 19 -6 0 -19 -7
-30 -16z"/>
<path d="M14770 20746 c0 -2 8 -10 18 -17 15 -13 16 -12 3 4 -13 16 -21 21
-21 13z"/>
<path d="M14035 20724 c6 -5 28 -25 50 -44 l40 -35 -30 33 c-17 19 -39 38 -50
44 -11 6 -15 7 -10 2z"/>
<path d="M12224 20704 c-18 -14 -18 -14 6 -3 31 14 36 19 24 19 -6 0 -19 -7
-30 -16z"/>
<path d="M16059 20693 l-24 -28 28 24 c25 23 32 31 24 31 -2 0 -14 -12 -28
-27z"/>
<path d="M11788 20683 c26 -36 80 -78 89 -69 4 3 1 6 -6 6 -6 0 -33 21 -58 48
-34 34 -41 38 -25 15z"/>
<path d="M18695 20690 c10 -11 20 -20 23 -20 3 0 -3 9 -13 20 -10 11 -20 20
-23 20 -3 0 3 -9 13 -20z"/>
<path d="M12139 20659 l-24 -20 30 17 c39 24 40 24 28 24 -6 0 -21 -9 -34 -21z"/>
<path d="M17063 20673 c9 -2 23 -2 30 0 6 3 -1 5 -18 5 -16 0 -22 -2 -12 -5z"/>
<path d="M17558 20673 c12 -2 32 -2 45 0 12 2 2 4 -23 4 -25 0 -35 -2 -22 -4z"/>
<path d="M17018 20663 c7 -3 16 -2 19 1 4 3 -2 6 -13 5 -11 0 -14 -3 -6 -6z"/>
<path d="M17640 20660 c8 -5 24 -10 34 -10 26 0 18 6 -19 14 -22 5 -26 4 -15
-4z"/>
<path d="M16019 20643 c-13 -16 -12 -17 4 -4 16 13 21 21 13 21 -2 0 -10 -8
-17 -17z"/>
<path d="M18720 20654 c0 -6 7 -19 16 -30 14 -18 14 -18 3 6 -14 31 -19 36
-19 24z"/>
<path d="M14130 20647 c0 -1 35 -36 78 -77 l77 -75 -75 78 c-69 71 -80 82 -80
74z"/>
<path d="M12071 20629 c-13 -5 -21 -12 -18 -15 3 -3 18 1 34 10 31 17 21 20
-16 5z"/>
<path d="M16870 20625 c-33 -19 -21 -19 21 0 19 8 27 14 19 14 -8 0 -26 -6
-40 -14z"/>
<path d="M17799 20625 c18 -8 38 -15 45 -14 15 1 -46 28 -64 28 -8 0 0 -6 19
-14z"/>
<path d="M11948 20593 c7 -3 16 -2 19 1 4 3 -2 6 -13 5 -11 0 -14 -3 -6 -6z"/>
<path d="M16774 20584 c-18 -14 -18 -14 6 -3 31 14 36 19 24 19 -6 0 -19 -7
-30 -16z"/>
<path d="M17900 20598 c3 -3 21 -10 40 -17 19 -6 30 -7 25 -2 -6 5 -23 13 -40
17 -16 4 -28 5 -25 2z"/>
<path d="M15969 20573 c-13 -16 -12 -17 4 -4 9 7 17 15 17 17 0 8 -8 3 -21
-13z"/>
<path d="M16689 20543 c-13 -17 -13 -17 6 -3 11 8 22 16 24 17 2 2 0 3 -6 3
-6 0 -17 -8 -24 -17z"/>
<path d="M14890 20530 c6 -11 13 -20 16 -20 2 0 0 9 -6 20 -6 11 -13 20 -16
20 -2 0 0 -9 6 -20z"/>
<path d="M15935 20524 c-9 -15 -12 -23 -6 -20 11 7 35 46 28 46 -3 0 -12 -12
-22 -26z"/>
<path d="M18050 20546 c0 -2 7 -7 16 -10 8 -3 12 -2 9 4 -6 10 -25 14 -25 6z"/>
<path d="M18763 20515 c0 -22 2 -30 4 -17 2 12 2 30 0 40 -3 9 -5 -1 -4 -23z"/>
<path d="M16619 20503 c-13 -16 -12 -17 4 -4 16 13 21 21 13 21 -2 0 -10 -8
-17 -17z"/>
<path d="M14300 20465 c13 -14 26 -25 28 -25 3 0 -5 11 -18 25 -13 14 -26 25
-28 25 -3 0 5 -11 18 -25z"/>
<path d="M15901 20467 c-13 -21 -12 -21 5 -5 10 10 16 20 13 22 -3 3 -11 -5
-18 -17z"/>
<path d="M16559 20463 c-13 -16 -12 -17 4 -4 9 7 17 15 17 17 0 8 -8 3 -21
-13z"/>
<path d="M18221 20476 c2 -2 15 -9 29 -15 24 -11 24 -11 6 3 -16 13 -49 24
-35 12z"/>
<path d="M14920 20461 c0 -6 4 -13 10 -16 6 -3 7 1 4 9 -7 18 -14 21 -14 7z"/>
<path d="M18301 20436 c2 -2 15 -9 29 -15 24 -11 24 -11 6 3 -16 13 -49 24
-35 12z"/>
<path d="M14330 20426 c0 -2 8 -10 18 -17 15 -13 16 -12 3 4 -13 16 -21 21
-21 13z"/>
<path d="M16489 20413 c-13 -16 -12 -17 4 -4 9 7 17 15 17 17 0 8 -8 3 -21
-13z"/>
<path d="M15861 20397 c-13 -21 -12 -21 5 -5 10 10 16 20 13 22 -3 3 -11 -5
-18 -17z"/>
<path d="M16420 20355 c-24 -25 -42 -45 -39 -45 3 0 25 20 49 45 24 25 42 45
39 45 -3 0 -25 -20 -49 -45z"/>
<path d="M18699 20373 c-13 -16 -12 -17 4 -4 16 13 21 21 13 21 -2 0 -10 -8
-17 -17z"/>
<path d="M14370 20376 c0 -2 8 -10 18 -17 15 -13 16 -12 3 4 -13 16 -21 21
-21 13z"/>
<path d="M14960 20374 c0 -6 7 -19 16 -30 14 -18 14 -18 3 6 -14 31 -19 36
-19 24z"/>
<path d="M18490 20345 c14 -8 32 -14 40 -14 8 0 0 6 -19 14 -42 19 -54 19 -21
0z"/>
<path d="M18640 20345 c-14 -8 -19 -14 -10 -14 8 0 24 6 34 14 25 19 9 19 -24
0z"/>
<path d="M15821 20323 c-10 -26 -10 -27 4 -9 8 11 15 23 15 28 0 15 -7 8 -19
-19z"/>
<path d="M14400 20336 c0 -2 8 -10 18 -17 15 -13 16 -12 3 4 -13 16 -21 21
-21 13z"/>
<path d="M12978 20273 c6 -2 18 -2 25 0 6 3 1 5 -13 5 -14 0 -19 -2 -12 -5z"/>
<path d="M13218 20273 c6 -2 18 -2 25 0 6 3 1 5 -13 5 -14 0 -19 -2 -12 -5z"/>
<path d="M15000 20274 c0 -6 7 -19 16 -30 14 -18 14 -18 3 6 -14 31 -19 36
-19 24z"/>
<path d="M12840 20255 c-25 -7 -36 -13 -25 -14 11 0 43 6 70 13 29 8 39 14 25
14 -14 0 -45 -6 -70 -13z"/>
<path d="M13335 20255 c22 -8 51 -14 65 -14 14 0 4 6 -25 14 -63 18 -93 17
-40 0z"/>
<path d="M14461 20253 c7 -12 15 -20 18 -17 3 2 -3 12 -13 22 -17 16 -18 16
-5 -5z"/>
<path d="M15780 20240 c-6 -11 -8 -20 -6 -20 3 0 10 9 16 20 6 11 8 20 6 20
-3 0 -10 -9 -16 -20z"/>
<path d="M16285 20218 l-40 -43 43 40 c39 36 47 45 39 45 -2 0 -21 -19 -42
-42z"/>
<path d="M12758 20233 c7 -3 16 -2 19 1 4 3 -2 6 -13 5 -11 0 -14 -3 -6 -6z"/>
<path d="M12685 20215 c-16 -8 -23 -14 -15 -14 8 0 29 6 45 14 17 7 23 13 15
13 -8 0 -28 -6 -45 -13z"/>
<path d="M13490 20216 c14 -9 32 -15 40 -15 13 0 13 1 0 8 -8 5 -26 12 -40 15
l-25 7 25 -15z"/>
<path d="M14495 20196 c10 -14 19 -26 22 -26 7 0 -17 39 -28 46 -6 3 -3 -5 6
-20z"/>
<path d="M12575 20175 c-16 -8 -23 -14 -15 -14 8 0 26 6 40 14 32 18 15 18
-25 0z"/>
<path d="M13610 20170 c8 -5 20 -10 25 -10 6 0 3 5 -5 10 -8 5 -19 10 -25 10
-5 0 -3 -5 5 -10z"/>
<path d="M15742 20148 c-10 -30 -10 -31 3 -14 13 17 21 46 12 46 -1 0 -8 -15
-15 -32z"/>
<path d="M12490 20140 c-19 -11 -29 -19 -23 -20 7 0 27 9 45 20 42 25 24 25
-22 0z"/>
<path d="M13684 20136 c11 -9 24 -16 30 -16 12 0 7 5 -24 19 -24 11 -24 11 -6
-3z"/>
<path d="M15050 20145 c0 -5 5 -17 10 -25 5 -8 10 -10 10 -5 0 6 -5 17 -10 25
-5 8 -10 11 -10 5z"/>
<path d="M14541 20123 c7 -12 15 -20 18 -17 3 2 -3 12 -13 22 -17 16 -18 16
-5 -5z"/>
<path d="M12400 20095 c-14 -8 -20 -14 -14 -15 5 0 19 7 30 15 24 18 16 19
-16 0z"/>
<path d="M13760 20097 c11 -12 141 -96 135 -87 -3 5 -26 22 -50 39 -46 31 -94
58 -85 48z"/>
<path d="M16169 20073 c-13 -16 -12 -17 4 -4 16 13 21 21 13 21 -2 0 -10 -8
-17 -17z"/>
<path d="M12335 20060 c-16 -11 -25 -20 -19 -20 11 0 64 39 54 40 -3 0 -18 -9
-35 -20z"/>
<path d="M17598 20073 c23 -2 59 -2 80 0 20 2 1 4 -43 4 -44 0 -61 -2 -37 -4z"/>
<path d="M14581 20053 c7 -12 15 -20 18 -17 3 2 -3 12 -13 22 -17 16 -18 16
-5 -5z"/>
<path d="M15702 20045 c-17 -37 -14 -45 4 -12 9 16 14 31 11 33 -2 2 -9 -7
-15 -21z"/>
<path d="M17400 20055 c-25 -7 -36 -13 -25 -14 11 0 43 6 70 13 29 8 39 14 25
14 -14 0 -45 -6 -70 -13z"/>
<path d="M17840 20055 c72 -18 110 -18 45 0 -27 8 -61 14 -75 14 -14 -1 0 -7
30 -14z"/>
<path d="M15086 20040 c3 -14 11 -32 16 -40 6 -10 7 -7 2 10 -3 14 -11 32 -16
40 -6 10 -7 7 -2 -10z"/>
<path d="M17958 20033 c7 -3 16 -2 19 1 4 3 -2 6 -13 5 -11 0 -14 -3 -6 -6z"/>
<path d="M12227 19998 c-26 -17 -46 -32 -44 -35 5 -4 97 55 97 63 0 6 0 6 -53
-28z"/>
<path d="M17250 20015 c-19 -7 -28 -14 -20 -14 8 0 29 6 45 14 39 17 21 18
-25 0z"/>
<path d="M18000 20022 c8 -5 26 -13 40 -16 17 -5 20 -4 10 2 -8 5 -26 13 -40
16 -17 5 -20 4 -10 -2z"/>
<path d="M13955 19958 c28 -23 89 -81 138 -128 111 -108 121 -114 32 -21 -38
40 -104 100 -145 133 -41 32 -52 40 -25 16z"/>
<path d="M14621 19980 c14 -31 19 -36 19 -24 0 6 -7 19 -16 30 -14 18 -14 18
-3 -6z"/>
<path d="M17144 19975 c-10 -8 -14 -15 -8 -15 5 0 19 7 30 15 10 8 14 15 8 15
-5 0 -19 -7 -30 -15z"/>
<path d="M18138 19968 c5 -5 16 -8 23 -6 8 3 3 7 -10 11 -17 4 -21 3 -13 -5z"/>
<path d="M12135 19934 c-18 -16 -22 -22 -9 -15 18 9 53 42 43 41 -2 -1 -17
-12 -34 -26z"/>
<path d="M15668 19945 c-3 -11 -9 -29 -13 -40 -3 -11 1 -7 10 8 9 16 15 33 12
40 -2 6 -6 3 -9 -8z"/>
<path d="M18181 19956 c2 -2 15 -9 29 -15 24 -11 24 -11 6 3 -16 13 -49 24
-35 12z"/>
<path d="M17060 19935 c-14 -8 -20 -14 -14 -15 5 0 19 7 30 15 24 18 16 19
-16 0z"/>
<path d="M15121 19924 c0 -11 3 -14 6 -6 3 7 2 16 -1 19 -3 4 -6 -2 -5 -13z"/>
<path d="M16063 19908 c-15 -20 -25 -38 -20 -38 3 0 12 11 21 25 17 26 16 35
-1 13z"/>
<path d="M12040 19869 c-56 -42 -107 -88 -80 -73 14 7 113 85 135 105 23 22
-4 6 -55 -32z"/>
<path d="M16984 19894 c-18 -14 -18 -15 4 -4 12 6 22 13 22 15 0 8 -5 6 -26
-11z"/>
<path d="M18302 19894 c10 -10 20 -16 22 -13 3 3 -5 11 -17 18 -21 13 -21 12
-5 -5z"/>
<path d="M15131 19890 c0 -8 4 -22 9 -30 12 -18 12 -2 0 25 -6 13 -9 15 -9 5z"/>
<path d="M16910 19849 c-22 -18 -22 -19 -3 -10 12 6 25 16 28 21 9 15 3 12
-25 -11z"/>
<path d="M18372 19854 c10 -10 20 -16 22 -13 3 3 -5 11 -17 18 -21 13 -21 12
-5 -5z"/>
<path d="M14701 19820 c14 -31 19 -36 19 -24 0 6 -7 19 -16 30 -14 18 -14 18
-3 -6z"/>
<path d="M15621 19789 c-7 -22 -11 -43 -8 -45 2 -2 9 14 16 37 7 22 11 43 8
45 -2 2 -9 -14 -16 -37z"/>
<path d="M16010 19815 c-7 -9 -11 -17 -9 -20 3 -2 10 5 17 15 14 24 10 26 -8
5z"/>
<path d="M16850 19809 c-22 -18 -22 -19 -3 -10 12 6 25 16 28 21 9 15 3 12
-25 -11z"/>
<path d="M18485 19780 c21 -24 26 -25 19 -6 -3 8 -13 17 -22 21 -13 5 -13 2 3
-15z"/>
<path d="M11875 19734 l-60 -56 63 52 c54 46 69 60 60 60 -2 0 -30 -25 -63
-56z"/>
<path d="M15161 19774 c0 -11 3 -14 6 -6 3 7 2 16 -1 19 -3 4 -6 -2 -5 -13z"/>
<path d="M16799 19773 c-13 -16 -12 -17 4 -4 16 13 21 21 13 21 -2 0 -10 -8
-17 -17z"/>
<path d="M12950 19744 l-45 -14 40 7 c22 3 69 9 105 13 l65 7 -60 1 c-33 0
-80 -6 -105 -14z"/>
<path d="M13181 19756 c2 -2 42 -6 89 -9 48 -3 74 -1 60 3 -25 8 -157 13 -149
6z"/>
<path d="M16754 19738 l-19 -23 23 19 c21 18 27 26 19 26 -2 0 -12 -10 -23
-22z"/>
<path d="M14741 19730 c14 -31 19 -36 19 -24 0 6 -7 19 -16 30 -14 18 -14 18
-3 -6z"/>
<path d="M15965 19729 c-4 -6 -5 -12 -2 -15 2 -3 7 2 10 11 7 17 1 20 -8 4z"/>
<path d="M14205 19710 c10 -11 20 -20 23 -20 3 0 -3 9 -13 20 -10 11 -20 20
-23 20 -3 0 3 -9 13 -20z"/>
<path d="M15601 19714 c0 -11 3 -14 6 -6 3 7 2 16 -1 19 -3 4 -6 -2 -5 -13z"/>
<path d="M12790 19705 c-32 -18 -26 -18 30 -1 32 11 38 15 20 15 -14 0 -36 -6
-50 -14z"/>
<path d="M13485 19700 c62 -25 70 -25 25 0 -19 11 -44 19 -55 19 -11 0 3 -9
30 -19z"/>
<path d="M16655 19654 c-70 -66 -70 -66 -9 -15 57 47 92 81 83 81 -2 0 -35
-30 -74 -66z"/>
<path d="M18580 19718 c0 -2 33 -30 73 -62 43 -34 54 -41 27 -16 -46 42 -100
84 -100 78z"/>
<path d="M11640 19513 l-165 -168 168 165 c92 91 167 166 167 167 0 8 -17 -9
-170 -164z"/>
<path d="M12684 19665 c-24 -18 -7 -19 26 0 16 9 19 14 9 15 -8 0 -24 -7 -35
-15z"/>
<path d="M13576 19665 c10 -8 24 -14 29 -14 6 0 1 6 -9 14 -11 8 -24 15 -30
15 -5 0 -1 -7 10 -15z"/>
<path d="M14250 19655 c13 -14 26 -25 28 -25 3 0 -5 11 -18 25 -13 14 -26 25
-28 25 -3 0 5 -11 18 -25z"/>
<path d="M15581 19619 c-7 -27 -11 -52 -8 -55 3 -3 10 18 17 46 7 28 10 53 8
55 -2 3 -10 -18 -17 -46z"/>
<path d="M15930 19649 c-7 -11 -10 -23 -7 -25 2 -2 9 7 15 21 14 30 7 33 -8 4z"/>
<path d="M12604 19624 c-18 -14 -18 -14 6 -3 31 14 36 19 24 19 -6 0 -19 -7
-30 -16z"/>
<path d="M13665 19620 c17 -11 35 -20 40 -20 6 0 -3 9 -20 20 -16 11 -34 20
-40 20 -5 0 4 -9 20 -20z"/>
<path d="M15202 19615 c0 -11 3 -29 8 -40 11 -25 11 1 0 35 -6 20 -8 21 -8 5z"/>
<path d="M14295 19600 c10 -11 20 -20 23 -20 3 0 -3 9 -13 20 -10 11 -20 20
-23 20 -3 0 3 -9 13 -20z"/>
<path d="M12519 19579 c-19 -16 -20 -18 -4 -10 34 17 51 31 39 31 -7 0 -22 -9
-35 -21z"/>
<path d="M13720 19596 c0 -2 23 -18 50 -35 62 -38 66 -33 4 8 -44 30 -54 35
-54 27z"/>
<path d="M18850 19475 c63 -63 117 -115 120 -115 2 0 -47 52 -110 115 -63 63
-117 115 -120 115 -2 0 47 -52 110 -115z"/>
<path d="M14320 19566 c0 -2 8 -10 18 -17 15 -13 16 -12 3 4 -13 16 -21 21
-21 13z"/>
<path d="M12465 19550 c-3 -6 1 -7 9 -4 18 7 21 14 7 14 -6 0 -13 -4 -16 -10z"/>
<path d="M15883 19545 c-3 -9 -3 -18 -1 -21 3 -3 8 4 11 16 6 23 -1 27 -10 5z"/>
<path d="M17388 19553 c12 -2 30 -2 40 0 9 3 -1 5 -23 4 -22 0 -30 -2 -17 -4z"/>
<path d="M17708 19553 c12 -2 30 -2 40 0 9 3 -1 5 -23 4 -22 0 -30 -2 -17 -4z"/>
<path d="M17338 19543 c7 -3 16 -2 19 1 4 3 -2 6 -13 5 -11 0 -14 -3 -6 -6z"/>
<path d="M14820 19535 c0 -5 5 -17 10 -25 5 -8 10 -10 10 -5 0 6 -5 17 -10 25
-5 8 -10 11 -10 5z"/>
<path d="M12409 19509 l-24 -20 28 17 c15 9 27 18 27 20 0 8 -8 4 -31 -17z"/>
<path d="M14359 19512 c5 -10 18 -25 27 -33 11 -9 9 -2 -6 19 -26 35 -36 42
-21 14z"/>
<path d="M15561 19514 c0 -11 3 -14 6 -6 3 7 2 16 -1 19 -3 4 -6 -2 -5 -13z"/>
<path d="M13846 19511 c5 -5 38 -32 74 -61 l65 -51 -65 60 c-36 33 -69 61 -74
61 -7 0 -7 -3 0 -9z"/>
<path d="M17200 19510 c-18 -12 -2 -12 25 0 13 6 15 9 5 9 -8 0 -22 -4 -30 -9z"/>
<path d="M17909 19505 c18 -8 36 -15 40 -15 13 1 -45 29 -59 29 -8 0 0 -6 19
-14z"/>
<path d="M12326 19455 c-25 -20 -46 -38 -46 -41 0 -5 63 41 95 68 26 23 -8 3
-49 -27z"/>
<path d="M16425 19423 c-33 -38 -49 -59 -36 -48 26 22 105 115 99 115 -3 0
-31 -30 -63 -67z"/>
<path d="M15852 19455 c-7 -14 -12 -31 -12 -38 1 -7 7 3 16 22 17 39 13 54 -4
16z"/>
<path d="M17094 19464 c-18 -14 -18 -14 6 -3 31 14 36 19 24 19 -6 0 -19 -7
-30 -16z"/>
<path d="M17991 19476 c2 -2 15 -9 29 -15 24 -11 24 -11 6 3 -16 13 -49 24
-35 12z"/>
<path d="M14400 19453 c0 -5 10 -18 23 -29 l22 -19 -20 25 c-11 14 -21 27 -22
29 -2 2 -3 0 -3 -6z"/>
<path d="M15553 19415 c0 -27 2 -38 4 -22 2 15 2 37 0 50 -2 12 -4 0 -4 -28z"/>
<path d="M14861 19435 c1 -19 18 -51 18 -35 0 8 -4 22 -9 30 -5 8 -9 11 -9 5z"/>
<path d="M15242 19420 c0 -14 2 -19 5 -12 2 6 2 18 0 25 -3 6 -5 1 -5 -13z"/>
<path d="M17009 19423 c-13 -17 -13 -17 6 -3 11 8 22 16 24 17 2 2 0 3 -6 3
-6 0 -17 -8 -24 -17z"/>
<path d="M18071 19436 c2 -2 15 -9 29 -15 24 -11 24 -11 6 3 -16 13 -49 24
-35 12z"/>
<path d="M12244 19388 l-19 -23 23 19 c21 18 27 26 19 26 -2 0 -12 -10 -23
-22z"/>
<path d="M14070 19315 c47 -47 87 -85 90 -85 2 0 -33 38 -80 85 -47 47 -87 85
-90 85 -2 0 33 -38 80 -85z"/>
<path d="M14440 19395 c0 -4 9 -18 20 -32 11 -14 20 -22 20 -18 0 4 -9 18 -20
32 -11 14 -20 22 -20 18z"/>
<path d="M16929 19379 l-24 -20 28 17 c15 9 27 18 27 20 0 8 -8 4 -31 -17z"/>
<path d="M18150 19397 c0 -3 12 -12 26 -22 15 -9 23 -12 20 -6 -7 11 -46 35
-46 28z"/>
<path d="M15252 19375 c0 -11 3 -29 8 -40 11 -25 11 1 0 35 -6 20 -8 21 -8 5z"/>
<path d="M12189 19343 l-24 -28 28 24 c15 14 27 26 27 28 0 8 -8 1 -31 -24z"/>
<path d="M15809 19334 c-5 -15 -8 -29 -5 -31 2 -2 8 10 14 26 13 38 5 41 -9 5z"/>
<path d="M14890 19345 c0 -5 5 -17 10 -25 5 -8 10 -10 10 -5 0 6 -5 17 -10 25
-5 8 -10 11 -10 5z"/>
<path d="M11435 19298 l-40 -43 43 40 c39 36 47 45 39 45 -2 0 -21 -19 -42
-42z"/>
<path d="M16334 19318 l-19 -23 23 19 c21 18 27 26 19 26 -2 0 -12 -10 -23
-22z"/>
<path d="M14490 19311 c5 -11 15 -23 21 -27 6 -3 3 5 -6 20 -20 30 -30 35 -15
7z"/>
<path d="M19029 19281 c22 -26 48 -54 58 -62 10 -8 -7 14 -36 49 -30 34 -56
62 -58 62 -3 0 13 -22 36 -49z"/>
<path d="M12051 19224 c-55 -52 -119 -119 -142 -147 -26 -33 -15 -23 32 26 41
43 108 110 149 147 41 38 72 69 68 70 -3 0 -51 -43 -107 -96z"/>
<path d="M15542 19295 c0 -16 2 -22 5 -12 2 9 2 23 0 30 -3 6 -5 -1 -5 -18z"/>
<path d="M16804 19298 l-19 -23 23 19 c21 18 27 26 19 26 -2 0 -12 -10 -23
-22z"/>
<path d="M16294 19268 l-19 -23 23 19 c21 18 27 26 19 26 -2 0 -12 -10 -23
-22z"/>
<path d="M18315 19284 c6 -5 28 -25 50 -44 l40 -35 -30 33 c-17 19 -39 38 -50
44 -11 6 -15 7 -10 2z"/>
<path d="M16759 19263 c-13 -16 -12 -17 4 -4 9 7 17 15 17 17 0 8 -8 3 -21
-13z"/>
<path d="M14520 19263 c0 -6 8 -17 18 -24 16 -13 16 -13 2 6 -8 11 -16 22 -17
24 -2 2 -3 0 -3 -6z"/>
<path d="M11369 19223 l-24 -28 28 24 c25 23 32 31 24 31 -2 0 -14 -12 -28
-27z"/>
<path d="M15770 19229 c-7 -11 -10 -23 -7 -25 2 -2 9 7 15 21 14 30 7 33 -8 4z"/>
<path d="M16719 19233 c-13 -16 -12 -17 4 -4 9 7 17 15 17 17 0 8 -8 3 -21
-13z"/>
<path d="M16259 19223 c-13 -16 -12 -17 4 -4 9 7 17 15 17 17 0 8 -8 3 -21
-13z"/>
<path d="M14930 19225 c0 -5 5 -17 10 -25 5 -8 10 -10 10 -5 0 6 -5 17 -10 25
-5 8 -10 11 -10 5z"/>
<path d="M14200 19175 c19 -19 36 -35 39 -35 3 0 -10 16 -29 35 -19 19 -36 35
-39 35 -3 0 10 -16 29 -35z"/>
<path d="M15553 19175 c0 -22 2 -30 4 -17 2 12 2 30 0 40 -3 9 -5 -1 -4 -23z"/>
<path d="M14560 19194 c0 -6 7 -19 16 -30 14 -18 14 -18 3 6 -14 31 -19 36
-19 24z"/>
<path d="M15283 19165 c0 -22 2 -30 4 -17 2 12 2 30 0 40 -3 9 -5 -1 -4 -23z"/>
<path d="M16220 19168 c-15 -21 -17 -28 -6 -19 16 13 41 51 33 51 -2 0 -14
-15 -27 -32z"/>
<path d="M18440 19175 c13 -14 26 -25 28 -25 3 0 -5 11 -18 25 -13 14 -26 25
-28 25 -3 0 5 -11 18 -25z"/>
<path d="M19110 19186 c0 -2 8 -10 18 -17 15 -13 16 -12 3 4 -13 16 -21 21
-21 13z"/>
<path d="M11304 19148 c-11 -13 -28 -34 -39 -48 -16 -21 -14 -20 14 5 29 27
58 65 48 65 -2 0 -12 -10 -23 -22z"/>
<path d="M16590 19125 c-24 -25 -42 -45 -39 -45 3 0 25 20 49 45 24 25 42 45
39 45 -3 0 -25 -20 -49 -45z"/>
<path d="M14255 19110 c10 -11 20 -20 23 -20 3 0 -3 9 -13 20 -10 11 -20 20
-23 20 -3 0 3 -9 13 -20z"/>
<path d="M16179 19113 c-13 -16 -12 -17 4 -4 9 7 17 15 17 17 0 8 -8 3 -21
-13z"/>
<path d="M14600 19113 c0 -6 8 -17 18 -24 16 -13 16 -13 2 6 -8 11 -16 22 -17
24 -2 2 -3 0 -3 -6z"/>
<path d="M15599 19077 c5 -5 19 -7 32 -5 20 3 19 5 -9 9 -20 3 -29 2 -23 -4z"/>
<path d="M14316 19033 c20 -29 38 -53 40 -53 8 0 -14 35 -46 70 -28 32 -28 30
6 -17z"/>
<path d="M14981 19075 c1 -19 18 -51 18 -35 0 8 -4 22 -9 30 -5 8 -9 11 -9 5z"/>
<path d="M15293 19040 c0 -25 2 -35 4 -22 2 12 2 32 0 45 -2 12 -4 2 -4 -23z"/>
<path d="M16139 19053 c-13 -16 -12 -17 4 -4 16 13 21 21 13 21 -2 0 -10 -8
-17 -17z"/>
<path d="M19215 19050 c10 -11 20 -20 23 -20 3 0 -3 9 -13 20 -10 11 -20 20
-23 20 -3 0 3 -9 13 -20z"/>
<path d="M18600 19015 c19 -19 36 -35 39 -35 3 0 -10 16 -29 35 -19 19 -36 35
-39 35 -3 0 10 -16 29 -35z"/>
<path d="M14650 19020 c6 -11 13 -20 16 -20 2 0 0 9 -6 20 -6 11 -13 20 -16
20 -2 0 0 -9 6 -20z"/>
<path d="M16101 18997 c-13 -21 -12 -21 5 -5 10 10 16 20 13 22 -3 3 -11 -5
-18 -17z"/>
<path d="M19240 19016 c0 -2 8 -10 18 -17 15 -13 16 -12 3 4 -13 16 -21 21
-21 13z"/>
<path d="M11179 18993 c-13 -16 -12 -17 4 -4 9 7 17 15 17 17 0 8 -8 3 -21
-13z"/>
<path d="M11816 18972 l-30 -37 37 34 c38 36 42 42 30 40 -5 0 -21 -17 -37
-37z"/>
<path d="M11121 18913 c-40 -55 -40 -56 -6 -18 35 39 60 75 52 75 -3 0 -23
-26 -46 -57z"/>
<path d="M14375 18950 c10 -11 20 -20 23 -20 3 0 -3 9 -13 20 -10 11 -20 20
-23 20 -3 0 3 -9 13 -20z"/>
<path d="M15020 18965 c0 -5 5 -17 10 -25 5 -8 10 -10 10 -5 0 6 -5 17 -10 25
-5 8 -10 11 -10 5z"/>
<path d="M14690 18940 c6 -11 13 -20 16 -20 2 0 0 9 -6 20 -6 11 -13 20 -16
20 -2 0 0 -9 6 -20z"/>
<path d="M18680 18925 c19 -19 36 -35 39 -35 3 0 -10 16 -29 35 -19 19 -36 35
-39 35 -3 0 10 -16 29 -35z"/>
<path d="M19295 18940 c10 -11 20 -20 23 -20 3 0 -3 9 -13 20 -10 11 -20 20
-23 20 -3 0 3 -9 13 -20z"/>
<path d="M16059 18933 c-13 -16 -12 -17 4 -4 16 13 21 21 13 21 -2 0 -10 -8
-17 -17z"/>
<path d="M11754 18898 c-40 -43 -109 -129 -118 -148 -5 -8 5 1 20 20 16 19 53
63 82 98 56 67 65 82 16 30z"/>
<path d="M15293 18895 c0 -22 2 -30 4 -17 2 12 2 30 0 40 -3 9 -5 -1 -4 -23z"/>
<path d="M16355 18888 l-40 -43 43 40 c39 36 47 45 39 45 -2 0 -21 -19 -42
-42z"/>
<path d="M14425 18876 c10 -14 19 -26 22 -26 7 0 -17 39 -28 46 -6 3 -3 -5 6
-20z"/>
<path d="M15060 18870 c6 -11 13 -20 16 -20 2 0 0 9 -6 20 -6 11 -13 20 -16
20 -2 0 0 -9 6 -20z"/>
<path d="M14720 18874 c0 -5 7 -18 15 -28 8 -11 15 -16 15 -10 0 5 -7 18 -15
28 -8 11 -15 16 -15 10z"/>
<path d="M18735 18860 c10 -11 20 -20 23 -20 3 0 -3 9 -13 20 -10 11 -20 20
-23 20 -3 0 3 -9 13 -20z"/>
<path d="M11059 18833 c-13 -16 -12 -17 4 -4 16 13 21 21 13 21 -2 0 -10 -8
-17 -17z"/>
<path d="M19360 18846 c0 -2 8 -10 18 -17 15 -13 16 -12 3 4 -13 16 -21 21
-21 13z"/>
<path d="M14450 18836 c0 -2 8 -10 18 -17 15 -13 16 -12 3 4 -13 16 -21 21
-21 13z"/>
<path d="M15282 18820 c0 -14 2 -19 5 -12 2 6 2 18 0 25 -3 6 -5 1 -5 -13z"/>
<path d="M16294 18818 l-19 -23 23 19 c12 11 22 21 22 23 0 8 -8 2 -26 -19z"/>
<path d="M18760 18826 c0 -2 8 -10 18 -17 15 -13 16 -12 3 4 -13 16 -21 21
-21 13z"/>
<path d="M15980 18800 c-6 -11 -8 -20 -6 -20 3 0 10 9 16 20 6 11 8 20 6 20
-3 0 -10 -9 -16 -20z"/>
<path d="M11022 18780 c-12 -16 -22 -32 -22 -37 0 -4 11 8 25 27 14 19 25 35
25 37 0 8 -8 0 -28 -27z"/>
<path d="M14766 18770 c3 -14 11 -32 16 -40 6 -10 7 -7 2 10 -3 14 -11 32 -16
40 -6 10 -7 7 -2 -10z"/>
<path d="M19400 18786 c0 -2 8 -10 18 -17 15 -13 16 -12 3 4 -13 16 -21 21
-21 13z"/>
<path d="M14501 18763 c7 -12 15 -20 18 -17 3 2 -3 12 -13 22 -17 16 -18 16
-5 -5z"/>
<path d="M18810 18756 c0 -2 8 -10 18 -17 15 -13 16 -12 3 4 -13 16 -21 21
-21 13z"/>
<path d="M15249 18733 c-13 -16 -12 -17 4 -4 9 7 17 15 17 17 0 8 -8 3 -21
-13z"/>
<path d="M15941 18713 c-10 -26 -10 -27 4 -9 8 11 15 23 15 28 0 15 -7 8 -19
-19z"/>
<path d="M10975 18704 c-9 -14 -15 -27 -13 -30 2 -2 12 10 22 26 21 37 15 40
-9 4z"/>
<path d="M11609 18713 c-13 -16 -12 -17 4 -4 16 13 21 21 13 21 -2 0 -10 -8
-17 -17z"/>
<path d="M14529 18712 c6 -12 16 -24 22 -28 8 -4 8 -1 0 14 -6 12 -16 24 -22
28 -8 4 -8 1 0 -14z"/>
<path d="M18860 18693 c13 -18 25 -33 27 -33 8 0 -17 38 -33 51 -11 9 -9 2 6
-18z"/>
<path d="M11574 18668 l-19 -23 23 19 c21 18 27 26 19 26 -2 0 -12 -10 -23
-22z"/>
<path d="M16164 18658 l-19 -23 23 19 c21 18 27 26 19 26 -2 0 -12 -10 -23
-22z"/>
<path d="M14560 18664 c1 -12 39 -61 40 -51 0 5 -9 20 -20 34 -11 14 -20 22
-20 17z"/>
<path d="M19480 18663 c0 -6 8 -17 18 -24 16 -13 16 -13 2 6 -8 11 -16 22 -17
24 -2 2 -3 0 -3 -6z"/>
<path d="M10942 18635 c-7 -15 -11 -30 -8 -32 7 -7 28 36 24 49 -2 6 -9 -2
-16 -17z"/>
<path d="M14802 18650 c-1 -8 5 -44 13 -80 7 -36 13 -51 13 -35 0 31 -25 142
-26 115z"/>
<path d="M18890 18646 c0 -2 8 -10 18 -17 15 -13 16 -12 3 4 -13 16 -21 21
-21 13z"/>
<path d="M11539 18623 c-31 -39 -72 -103 -66 -103 2 0 23 27 46 60 40 56 51
81 20 43z"/>
<path d="M15908 18625 c-3 -11 -9 -29 -13 -40 -3 -11 1 -7 10 8 9 16 15 33 12
40 -2 6 -6 3 -9 -8z"/>
<path d="M16129 18613 c-13 -16 -12 -17 4 -4 16 13 21 21 13 21 -2 0 -10 -8
-17 -17z"/>
<path d="M16099 18573 c-13 -16 -12 -17 4 -4 9 7 17 15 17 17 0 8 -8 3 -21
-13z"/>
<path d="M18930 18586 c0 -2 8 -10 18 -17 15 -13 16 -12 3 4 -13 16 -21 21
-21 13z"/>
<path d="M14625 18556 c10 -14 19 -26 22 -26 7 0 -17 39 -28 46 -6 3 -3 -5 6
-20z"/>
<path d="M10906 18509 c-8 -40 -6 -136 3 -168 4 -14 7 26 7 87 0 62 -1 112 -2
112 -1 0 -4 -14 -8 -31z"/>
<path d="M19560 18533 c0 -6 8 -17 18 -24 16 -13 16 -13 2 6 -8 11 -16 22 -17
24 -2 2 -3 0 -3 -6z"/>
<path d="M18970 18526 c0 -2 8 -10 18 -17 15 -13 16 -12 3 4 -13 16 -21 21
-21 13z"/>
<path d="M14665 18500 c10 -11 20 -20 23 -20 3 0 -3 9 -13 20 -10 11 -20 20
-23 20 -3 0 3 -9 13 -20z"/>
<path d="M11449 18493 c-13 -16 -12 -17 4 -4 9 7 17 15 17 17 0 8 -8 3 -21
-13z"/>
<path d="M15995 18448 l-50 -53 53 50 c28 27 52 51 52 52 0 8 -9 -1 -55 -49z"/>
<path d="M15873 18455 c0 -22 2 -30 4 -17 2 12 2 30 0 40 -3 9 -5 -1 -4 -23z"/>
<path d="M19000 18485 c0 -4 9 -18 20 -32 11 -14 20 -22 20 -18 0 4 -9 18 -20
32 -11 14 -20 22 -20 18z"/>
<path d="M14690 18466 c0 -2 8 -10 18 -17 15 -13 16 -12 3 4 -13 16 -21 21
-21 13z"/>
<path d="M19600 18463 c0 -6 8 -17 18 -24 16 -13 16 -13 2 6 -8 11 -16 22 -17
24 -2 2 -3 0 -3 -6z"/>
<path d="M14821 18444 c0 -11 3 -14 6 -6 3 7 2 16 -1 19 -3 4 -6 -2 -5 -13z"/>
<path d="M11409 18433 c-13 -16 -12 -17 4 -4 9 7 17 15 17 17 0 8 -8 3 -21
-13z"/>
<path d="M14800 18410 c-9 -6 -10 -10 -3 -10 6 0 15 5 18 10 8 12 4 12 -15 0z"/>
<path d="M11383 18398 c-20 -26 -26 -41 -15 -34 12 7 36 46 29 46 -3 0 -9 -6
-14 -12z"/>
<path d="M19050 18396 c0 -2 8 -10 18 -17 15 -13 16 -12 3 4 -13 16 -21 21
-21 13z"/>
<path d="M19640 18393 c0 -6 8 -17 18 -24 16 -13 16 -13 2 6 -8 11 -16 22 -17
24 -2 2 -3 0 -3 -6z"/>
<path d="M11329 18313 c-13 -16 -12 -17 4 -4 16 13 21 21 13 21 -2 0 -10 -8
-17 -17z"/>
<path d="M19090 18326 c0 -2 8 -10 18 -17 15 -13 16 -12 3 4 -13 16 -21 21
-21 13z"/>
<path d="M19680 18321 c0 -6 4 -13 10 -16 6 -3 7 1 4 9 -7 18 -14 21 -14 7z"/>
<path d="M11289 18263 l-24 -28 28 24 c15 14 27 26 27 28 0 8 -8 1 -31 -24z"/>
<path d="M10959 18244 c29 -39 83 -74 113 -74 7 0 -7 10 -32 21 -25 11 -60 37
-78 57 l-34 37 31 -41z"/>
<path d="M19136 18255 c24 -39 24 -40 24 -28 0 6 -9 21 -21 34 l-20 24 17 -30z"/>
<path d="M11234 18218 l-19 -23 23 19 c21 18 27 26 19 26 -2 0 -12 -10 -23
-22z"/>
<path d="M19721 18235 c0 -5 6 -21 14 -35 8 -14 14 -20 14 -15 0 6 -6 21 -14
35 -8 14 -14 21 -14 15z"/>
<path d="M11160 18185 c-14 -8 -20 -14 -15 -14 6 0 21 6 35 14 14 8 21 14 15
14 -5 0 -21 -6 -35 -14z"/>
<path d="M19181 18173 c7 -12 15 -20 18 -17 3 2 -3 12 -13 22 -17 16 -18 16
-5 -5z"/>
<path d="M19751 18154 c0 -11 3 -14 6 -6 3 7 2 16 -1 19 -3 4 -6 -2 -5 -13z"/>
<path d="M19220 18100 c6 -11 13 -20 16 -20 2 0 0 9 -6 20 -6 11 -13 20 -16
20 -2 0 0 -9 6 -20z"/>
<path d="M19764 18020 c0 -52 1 -74 3 -47 2 26 2 68 0 95 -2 26 -3 4 -3 -48z"/>
<path d="M19261 18023 c7 -12 15 -20 18 -17 3 2 -3 12 -13 22 -17 16 -18 16
-5 -5z"/>
<path d="M19301 17943 c7 -12 15 -20 18 -17 3 2 -3 12 -13 22 -17 16 -18 16
-5 -5z"/>
<path d="M19330 17886 c0 -2 8 -10 18 -17 15 -13 16 -12 3 4 -13 16 -21 21
-21 13z"/>
<path d="M13912 17868 c-15 -15 -17 -410 -2 -439 11 -19 38 -19 1495 -19 1457
0 1484 0 1495 19 11 21 15 429 4 418 -4 -4 -6 -95 -5 -203 1 -138 -1 -200 -10
-210 -10 -12 -226 -14 -1485 -14 -863 0 -1475 4 -1478 9 -3 5 -7 104 -7 221
-2 172 1 214 12 221 8 5 9 9 4 9 -6 0 -16 -5 -23 -12z"/>
<path d="M19390 17815 c19 -19 36 -35 39 -35 3 0 -10 16 -29 35 -19 19 -36 35
-39 35 -3 0 10 -16 29 -35z"/>
<path d="M19684 17788 l-19 -23 23 19 c21 18 27 26 19 26 -2 0 -12 -10 -23
-22z"/>
<path d="M19505 17746 c38 -19 72 -19 110 -1 23 11 24 13 5 8 -30 -9 -85 -9
-120 1 -20 5 -19 4 5 -8z"/>
<path d="M14407 17221 c-6 -2 -15 -9 -19 -15 -4 -6 -8 -106 -8 -223 0 -201 1
-213 20 -223 12 -7 151 -9 407 -7 l388 2 -391 3 c-299 1 -394 5 -402 15 -6 7
-10 94 -11 213 -1 159 2 204 13 213 19 16 1983 16 2002 0 10 -8 14 -60 17
-208 l2 -196 3 200 c1 110 -2 206 -6 212 -6 10 -227 13 -1005 15 -548 2 -1003
1 -1010 -1z"/>
<path d="M16410 16775 c-10 -13 -69 -15 -409 -18 l-396 -2 396 -3 c328 -2 398
0 415 12 10 8 16 17 13 20 -3 4 -12 0 -19 -9z"/>
<path d="M15221 16748 c9 -7 19 -20 23 -28 3 -8 4 -4 3 10 -1 16 -9 26 -22 28
-18 3 -18 3 -4 -10z"/>
<path d="M15566 16751 c-4 -5 3 -7 14 -4 23 6 26 13 6 13 -8 0 -17 -4 -20 -9z"/>
<path d="M14382 16548 c-7 -7 -11 -26 -11 -42 2 -28 2 -28 6 -6 3 14 12 33 20
43 18 19 4 24 -15 5z"/>
<path d="M15971 16495 c0 -5 7 -39 14 -75 l15 -65 -6 60 c-3 33 -10 67 -15 75
-4 8 -8 11 -8 5z"/>
<path d="M14361 16444 c0 -11 3 -14 6 -6 3 7 2 16 -1 19 -3 4 -6 -2 -5 -13z"/>
<path d="M16443 16425 c0 -22 2 -30 4 -17 2 12 2 30 0 40 -3 9 -5 -1 -4 -23z"/>
<path d="M14821 16430 c-1 -8 -4 -26 -7 -40 -5 -22 -4 -23 6 -7 6 10 9 28 7
40 -2 12 -5 15 -6 7z"/>
<path d="M14342 16321 c-7 -41 -11 -76 -9 -78 7 -6 29 113 25 133 -2 10 -9
-15 -16 -55z"/>
<path d="M16452 16365 c0 -11 4 -31 8 -45 l8 -25 0 25 c0 14 -3 34 -8 45 l-9
20 1 -20z"/>
<path d="M14802 16320 c0 -19 2 -27 5 -17 2 9 2 25 0 35 -3 9 -5 1 -5 -18z"/>
<path d="M16017 16225 c17 -107 20 -122 22 -90 0 17 -6 53 -14 80 -13 44 -14
45 -8 10z"/>
<path d="M16482 16170 c0 -19 2 -27 5 -17 2 9 2 25 0 35 -3 9 -5 1 -5 -18z"/>
<path d="M14771 16134 c-7 -34 -11 -69 -8 -80 3 -13 5 -9 6 11 1 17 6 47 12
68 6 21 9 43 6 50 -2 6 -9 -16 -16 -49z"/>
<path d="M14302 16071 c-8 -40 -12 -75 -9 -77 6 -7 30 110 26 131 -2 10 -10
-14 -17 -54z"/>
<path d="M16492 16120 c0 -8 4 -26 8 -40 6 -20 8 -21 8 -5 0 11 -3 29 -8 40
-5 12 -8 14 -8 5z"/>
<path d="M16041 16054 c0 -11 3 -14 6 -6 3 7 2 16 -1 19 -3 4 -6 -2 -5 -13z"/>
<path d="M16052 16000 c0 -14 3 -34 8 -45 l9 -20 -1 20 c0 11 -4 31 -8 45 l-8
25 0 -25z"/>
<path d="M14282 15950 c0 -14 2 -19 5 -12 2 6 2 18 0 25 -3 6 -5 1 -5 -13z"/>
<path d="M16523 15935 c0 -22 2 -30 4 -17 2 12 2 30 0 40 -3 9 -5 -1 -4 -23z"/>
<path d="M14731 15884 c-7 -34 -11 -69 -8 -80 3 -13 5 -9 6 11 1 17 6 47 12
68 6 21 9 43 6 50 -2 6 -9 -16 -16 -49z"/>
<path d="M16073 15895 c0 -22 2 -30 4 -17 2 12 2 30 0 40 -3 9 -5 -1 -4 -23z"/>
<path d="M14262 15821 c-8 -40 -12 -75 -9 -77 6 -7 30 110 26 131 -2 10 -10
-14 -17 -54z"/>
<path d="M16532 15875 c0 -11 4 -31 8 -45 6 -20 8 -21 8 -5 0 11 -4 31 -8 45
-6 20 -8 21 -8 5z"/>
<path d="M16096 15725 c4 -22 11 -58 15 -80 7 -34 7 -31 4 17 -3 31 -10 67
-15 80 -8 18 -9 15 -4 -17z"/>
<path d="M14242 15700 c0 -14 2 -19 5 -12 2 6 2 18 0 25 -3 6 -5 1 -5 -13z"/>
<path d="M16562 15680 c0 -19 2 -27 5 -17 2 9 2 25 0 35 -3 9 -5 1 -5 -18z"/>
<path d="M14690 15634 c-7 -39 -10 -77 -7 -85 3 -8 6 -1 6 14 1 16 6 48 12 72
6 24 9 50 7 57 -3 7 -11 -19 -18 -58z"/>
<path d="M14228 15610 c-18 -117 -18 -127 -3 -70 8 30 14 69 12 85 -2 25 -3
22 -9 -15z"/>
<path d="M16572 15625 c0 -11 4 -31 8 -45 6 -20 8 -21 8 -5 0 11 -4 31 -8 45
-6 20 -8 21 -8 5z"/>
<path d="M16132 15505 c0 -11 5 -47 13 -80 8 -36 13 -48 13 -30 0 34 -25 140
-26 110z"/>
<path d="M14201 15444 c0 -11 3 -14 6 -6 3 7 2 16 -1 19 -3 4 -6 -2 -5 -13z"/>
<path d="M16602 15430 c0 -19 2 -27 5 -17 2 9 2 25 0 35 -3 9 -5 1 -5 -18z"/>
<path d="M14652 15392 c-7 -29 -12 -63 -11 -75 0 -12 7 7 15 43 8 36 12 70 10
75 -1 6 -8 -14 -14 -43z"/>
<path d="M14181 15321 c-7 -40 -11 -74 -8 -77 6 -7 30 122 25 137 -2 7 -10
-20 -17 -60z"/>
<path d="M16612 15375 c0 -11 4 -31 8 -45 l8 -25 0 25 c0 14 -3 34 -8 45 l-9
20 1 -20z"/>
<path d="M16172 15250 c0 -8 4 -26 8 -40 6 -20 8 -21 8 -5 0 11 -3 29 -8 40
-5 12 -8 14 -8 5z"/>
<path d="M14161 15194 c0 -11 3 -14 6 -6 3 7 2 16 -1 19 -3 4 -6 -2 -5 -13z"/>
<path d="M16642 15180 c0 -19 2 -27 5 -17 2 9 2 25 0 35 -3 9 -5 1 -5 -18z"/>
<path d="M14616 15174 c-13 -34 -6 -64 17 -69 12 -3 155 -4 317 -3 286 3 295
4 298 23 2 18 2 18 -8 3 -10 -17 -36 -18 -303 -18 -161 0 -298 4 -306 9 -9 6
-12 19 -8 40 7 33 3 41 -7 15z"/>
<path d="M16189 15150 l-4 -35 -312 0 c-171 0 -309 -3 -306 -7 2 -5 144 -8
314 -8 337 0 325 -2 317 57 -4 27 -4 26 -9 -7z"/>
<path d="M14142 15081 c-7 -41 -10 -76 -8 -78 7 -7 28 105 24 129 -2 13 -9
-10 -16 -51z"/>
<path d="M16652 15125 c0 -11 4 -31 8 -45 l8 -25 0 25 c0 14 -3 34 -8 45 l-9
20 1 -20z"/>
<path d="M14121 14954 c0 -11 3 -14 6 -6 3 7 2 16 -1 19 -3 4 -6 -2 -5 -13z"/>
<path d="M16681 14940 c0 -14 6 -47 13 -75 18 -64 19 -38 1 40 -7 33 -14 49
-14 35z"/>
<path d="M14101 14825 c-7 -42 -10 -79 -8 -82 7 -6 31 131 25 147 -2 7 -10
-22 -17 -65z"/>
<path d="M14081 14704 c0 -11 3 -14 6 -6 3 7 2 16 -1 19 -3 4 -6 -2 -5 -13z"/>
<path d="M16722 14695 c-1 -16 5 -55 13 -85 14 -52 15 -52 9 -10 -4 25 -10 63
-14 85 -6 34 -8 36 -8 10z"/>
<path d="M14062 14581 c-8 -40 -12 -75 -9 -77 6 -7 30 110 26 131 -2 10 -10
-14 -17 -54z"/>
<path d="M14536 14624 c-9 -8 -16 -30 -15 -47 1 -33 3 -30 13 16 4 16 16 32
29 37 16 6 17 9 5 9 -9 1 -24 -6 -32 -15z"/>
<path d="M15237 14619 c4 -13 8 -18 11 -10 2 7 -1 18 -6 23 -8 8 -9 4 -5 -13z"/>
<path d="M16256 14626 c21 -15 30 -14 19 3 -3 6 -14 11 -23 11 -13 0 -13 -2 4
-14z"/>
<path d="M16292 14510 c-1 -8 5 -44 13 -80 8 -40 13 -53 14 -35 0 17 -6 53
-13 80 -8 28 -14 43 -14 35z"/>
<path d="M14511 14494 c0 -11 3 -14 6 -6 3 7 2 16 -1 19 -3 4 -6 -2 -5 -13z"/>
<path d="M14041 14454 c0 -11 3 -14 6 -6 3 7 2 16 -1 19 -3 4 -6 -2 -5 -13z"/>
<path d="M16761 14445 c0 -16 6 -52 13 -80 18 -64 19 -39 1 45 -8 40 -13 53
-14 35z"/>
<path d="M14492 14401 c-7 -29 -12 -65 -11 -79 0 -15 7 5 15 43 16 83 13 111
-4 36z"/>
<path d="M14021 14325 c-7 -42 -11 -79 -8 -81 6 -6 30 131 25 146 -2 7 -10
-22 -17 -65z"/>
<path d="M16337 14240 c3 -25 9 -63 13 -85 l7 -40 1 35 c0 19 -6 58 -14 85
l-13 50 6 -45z"/>
<path d="M14001 14204 c0 -11 3 -14 6 -6 3 7 2 16 -1 19 -3 4 -6 -2 -5 -13z"/>
<path d="M16801 14195 c0 -16 6 -52 14 -80 13 -44 14 -45 8 -10 -17 107 -20
122 -22 90z"/>
<path d="M14452 14151 c-7 -29 -12 -65 -11 -79 0 -15 7 5 15 43 16 83 13 111
-4 36z"/>
<path d="M13981 14080 c-7 -39 -11 -74 -8 -76 6 -6 30 122 25 136 -2 6 -9 -21
-17 -60z"/>
<path d="M16371 14005 c0 -11 4 -29 9 -40 l9 -20 0 20 c0 11 -4 29 -9 40 l-9
20 0 -20z"/>
<path d="M13961 13954 c0 -11 3 -14 6 -6 3 7 2 16 -1 19 -3 4 -6 -2 -5 -13z"/>
<path d="M16842 13940 c0 -19 2 -27 5 -17 2 9 2 25 0 35 -3 9 -5 1 -5 -18z"/>
<path d="M14412 13906 c-6 -33 -12 -71 -11 -85 0 -14 7 3 15 39 8 36 13 74 11
85 -1 11 -8 -7 -15 -39z"/>
<path d="M16393 13905 c0 -22 2 -30 4 -17 2 12 2 30 0 40 -3 9 -5 -1 -4 -23z"/>
<path d="M13948 13870 c-19 -126 -19 -129 -3 -75 8 28 14 66 13 85 -3 34 -3
34 -10 -10z"/>
<path d="M16852 13885 c0 -11 4 -31 8 -45 6 -20 8 -21 8 -5 0 11 -4 31 -8 45
-6 20 -8 21 -8 5z"/>
<path d="M16401 13824 c0 -11 3 -14 6 -6 3 7 2 16 -1 19 -3 4 -6 -2 -5 -13z"/>
<path d="M16417 13740 c3 -25 9 -63 13 -85 l7 -40 1 35 c0 19 -6 58 -14 85
l-13 50 6 -45z"/>
<path d="M13922 13710 c0 -14 2 -19 5 -12 2 6 2 18 0 25 -3 6 -5 1 -5 -13z"/>
<path d="M16882 13690 c0 -19 2 -27 5 -17 2 9 2 25 0 35 -3 9 -5 1 -5 -18z"/>
<path d="M14372 13652 c-7 -29 -12 -65 -11 -80 0 -15 7 5 15 43 8 39 12 75 10
80 -1 6 -8 -14 -14 -43z"/>
<path d="M13901 13581 c-7 -40 -11 -74 -8 -77 6 -7 30 122 25 137 -2 7 -10
-20 -17 -60z"/>
<path d="M16892 13635 c0 -11 3 -29 8 -40 11 -25 11 1 0 35 -6 20 -8 21 -8 5z"/>
<path d="M16452 13515 c0 -11 5 -47 13 -80 8 -36 13 -48 13 -30 0 34 -25 140
-26 110z"/>
<path d="M14352 13500 c0 -14 2 -19 5 -12 2 6 2 18 0 25 -3 6 -5 1 -5 -13z"/>
<path d="M13882 13460 c0 -14 2 -19 5 -12 2 6 2 18 0 25 -3 6 -5 1 -5 -13z"/>
<path d="M16922 13450 c0 -19 6 -57 13 -85 17 -66 17 -38 0 50 -8 45 -13 57
-13 35z"/>
<path d="M14332 13406 c-7 -33 -12 -71 -11 -85 0 -14 7 6 15 44 8 39 13 77 11
85 -1 8 -8 -12 -15 -44z"/>
<path d="M13862 13341 c-7 -41 -10 -76 -8 -78 7 -7 28 105 24 129 -2 13 -9
-10 -16 -51z"/>
<path d="M16492 13270 c-1 -8 5 -44 13 -80 7 -36 13 -51 13 -35 0 31 -25 142
-26 115z"/>
<path d="M14311 13254 c0 -11 3 -14 6 -6 3 7 2 16 -1 19 -3 4 -6 -2 -5 -13z"/>
<path d="M13841 13204 c0 -11 3 -14 6 -6 3 7 2 16 -1 19 -3 4 -6 -2 -5 -13z"/>
<path d="M16962 13190 c0 -19 2 -27 5 -17 2 9 2 25 0 35 -3 9 -5 1 -5 -18z"/>
<path d="M14292 13156 c-7 -33 -12 -71 -11 -85 0 -14 7 6 15 44 8 39 13 77 11
85 -1 8 -8 -12 -15 -44z"/>
<path d="M13821 13085 c-7 -42 -10 -79 -8 -82 7 -6 31 131 25 147 -2 7 -10
-22 -17 -65z"/>
<path d="M16971 13135 c0 -11 4 -29 9 -40 l9 -20 0 20 c0 11 -4 29 -9 40 l-9
20 0 -20z"/>
<path d="M16537 12995 c17 -107 20 -122 22 -90 0 17 -6 53 -14 80 -13 44 -14
45 -8 10z"/>
<path d="M14271 13004 c0 -11 3 -14 6 -6 3 7 2 16 -1 19 -3 4 -6 -2 -5 -13z"/>
<path d="M17003 12945 c0 -22 2 -30 4 -17 2 12 2 30 0 40 -3 9 -5 -1 -4 -23z"/>
<path d="M14250 12893 c-22 -121 -79 -108 495 -108 492 0 500 0 503 20 2 18 2
18 -8 3 -10 -17 -45 -18 -496 -18 -423 0 -485 2 -490 15 -4 8 -1 45 6 81 7 35
10 67 7 70 -3 3 -10 -25 -17 -63z"/>
<path d="M13782 12841 c-7 -41 -10 -76 -8 -78 7 -7 28 105 24 129 -2 13 -9
-10 -16 -51z"/>
<path d="M17012 12885 c0 -11 4 -31 8 -45 l8 -25 0 25 c0 14 -3 34 -8 45 l-9
20 1 -20z"/>
<path d="M16556 12805 c-5 -14 -59 -15 -500 -13 -272 2 -492 0 -489 -4 2 -5
227 -8 499 -8 437 0 495 2 501 15 3 9 3 18 0 21 -2 3 -7 -2 -11 -11z"/>
<path d="M13761 12714 c0 -11 3 -14 6 -6 3 7 2 16 -1 19 -3 4 -6 -2 -5 -13z"/>
<path d="M17041 12700 c0 -14 6 -47 13 -75 18 -64 19 -38 1 40 -7 33 -14 49
-14 35z"/>
<path d="M11440 12659 c0 -5 5 -7 10 -4 6 3 10 8 10 11 0 2 -4 4 -10 4 -5 0
-10 -5 -10 -11z"/>
<path d="M11948 12658 c9 -9 12 -207 12 -829 0 -450 3 -820 8 -822 8 -6 5
1605 -3 1641 -3 12 -11 22 -17 22 -9 0 -9 -3 0 -12z"/>
<path d="M12355 12648 c-3 -13 -4 -374 -3 -803 l3 -780 3 791 c1 598 5 793 14
802 9 9 9 12 0 12 -6 0 -14 -10 -17 -22z"/>
<path d="M12868 12658 c9 -9 13 -205 14 -807 l3 -796 3 785 c1 432 0 795 -3
808 -3 12 -11 22 -17 22 -9 0 -9 -3 0 -12z"/>
<path d="M13741 12585 c-7 -42 -10 -79 -8 -82 7 -6 31 131 25 147 -2 7 -10
-22 -17 -65z"/>
<path d="M19044 12619 c-3 -6 0 -17 7 -25 18 -17 44 -2 36 20 -7 18 -33 21
-43 5z"/>
<path d="M13721 12464 c0 -11 3 -14 6 -6 3 7 2 16 -1 19 -3 4 -6 -2 -5 -13z"/>
<path d="M17082 12450 c0 -19 2 -27 5 -17 2 9 2 25 0 35 -3 9 -5 1 -5 -18z"/>
<path d="M13702 12341 c-7 -41 -11 -76 -9 -78 7 -6 29 113 25 133 -2 10 -9
-15 -16 -55z"/>
<path d="M17092 12395 c0 -11 4 -31 8 -45 6 -20 8 -21 8 -5 0 11 -4 31 -8 45
-6 20 -8 21 -8 5z"/>
<path d="M13935 12390 c-9 -15 14 -40 31 -33 22 8 18 43 -5 43 -11 0 -23 -5
-26 -10z"/>
<path d="M14167 12313 c-3 -5 74 -7 171 -5 288 4 313 8 65 10 -127 1 -234 -1
-236 -5z"/>
<path d="M15233 12295 c7 -13 14 -20 15 -14 5 14 -6 39 -17 39 -5 0 -4 -11 2
-25z"/>
<path d="M15565 12310 c-3 -6 1 -7 9 -4 18 7 21 14 7 14 -6 0 -13 -4 -16 -10z"/>
<path d="M16636 12307 c3 -10 9 -15 12 -12 3 3 0 11 -7 18 -10 9 -11 8 -5 -6z"/>
<path d="M16652 12270 c0 -8 4 -26 8 -40 6 -20 8 -21 8 -5 0 11 -3 29 -8 40
-5 12 -8 14 -8 5z"/>
<path d="M13681 12214 c0 -11 3 -14 6 -6 3 7 2 16 -1 19 -3 4 -6 -2 -5 -13z"/>
<path d="M17122 12200 c0 -19 2 -27 5 -17 2 9 2 25 0 35 -3 9 -5 1 -5 -18z"/>
<path d="M14132 12166 c-7 -33 -12 -71 -11 -85 0 -14 7 6 15 44 8 39 13 77 11
85 -1 8 -8 -12 -15 -44z"/>
<path d="M16673 12165 c0 -22 2 -30 4 -17 2 12 2 30 0 40 -3 9 -5 -1 -4 -23z"/>
<path d="M13662 12089 c-7 -39 -11 -74 -8 -76 5 -6 29 124 24 137 -2 7 -9 -21
-16 -61z"/>
<path d="M17132 12145 c0 -11 4 -31 8 -45 6 -20 8 -21 8 -5 0 11 -4 31 -8 45
-6 20 -8 21 -8 5z"/>
<path d="M16692 12020 c0 -14 3 -34 8 -45 l9 -20 -1 20 c0 11 -4 31 -8 45 l-8
25 0 -25z"/>
<path d="M17162 11955 c0 -34 25 -140 26 -110 0 11 -5 47 -13 80 -8 36 -13 48
-13 30z"/>
<path d="M14092 11916 c-7 -33 -12 -71 -11 -85 0 -14 7 6 15 44 8 39 13 77 11
85 -1 8 -8 -12 -15 -44z"/>
<path d="M16712 11920 c0 -19 2 -27 5 -17 2 9 2 25 0 35 -3 9 -5 1 -5 -18z"/>
<path d="M13621 11841 c-7 -40 -11 -74 -8 -77 6 -7 30 122 25 137 -2 7 -10
-20 -17 -60z"/>
<path d="M16732 11775 c0 -11 4 -31 8 -45 6 -20 8 -21 8 -5 0 11 -4 31 -8 45
-6 20 -8 21 -8 5z"/>
<path d="M14071 11764 c0 -11 3 -14 6 -6 3 7 2 16 -1 19 -3 4 -6 -2 -5 -13z"/>
<path d="M13602 11720 c0 -14 2 -19 5 -12 2 6 2 18 0 25 -3 6 -5 1 -5 -13z"/>
<path d="M17202 11700 c0 -19 2 -27 5 -17 2 9 2 25 0 35 -3 9 -5 1 -5 -18z"/>
<path d="M14052 11666 c-7 -33 -12 -71 -11 -85 0 -14 7 6 15 44 8 39 13 77 11
85 -1 8 -8 -12 -15 -44z"/>
<path d="M16752 11670 c0 -19 2 -27 5 -17 2 9 2 25 0 35 -3 9 -5 1 -5 -18z"/>
<path d="M13581 11595 c-7 -42 -10 -79 -8 -82 7 -6 31 131 25 147 -2 7 -10
-22 -17 -65z"/>
<path d="M17212 11645 c0 -11 4 -31 8 -45 l8 -25 0 25 c0 14 -3 34 -8 45 l-9
20 1 -20z"/>
<path d="M16777 11505 c17 -107 20 -122 22 -90 0 17 -6 53 -14 80 -13 44 -14
45 -8 10z"/>
<path d="M13562 11470 c0 -14 2 -19 5 -12 2 6 2 18 0 25 -3 6 -5 1 -5 -13z"/>
<path d="M17241 11465 c0 -16 6 -52 14 -80 13 -44 14 -45 8 -10 -17 107 -20
122 -22 90z"/>
<path d="M14012 11415 c-7 -32 -12 -70 -11 -84 1 -14 7 8 15 49 8 41 12 79 11
85 -2 5 -9 -17 -15 -50z"/>
<path d="M13541 11345 c-7 -42 -10 -79 -8 -82 7 -6 31 131 25 147 -2 7 -10
-22 -17 -65z"/>
<path d="M16812 11285 c-1 -11 5 -49 13 -85 9 -47 13 -55 13 -30 0 38 -25 148
-26 115z"/>
<path d="M13521 11224 c0 -11 3 -14 6 -6 3 7 2 16 -1 19 -3 4 -6 -2 -5 -13z"/>
<path d="M17282 11200 c0 -19 2 -27 5 -17 2 9 2 25 0 35 -3 9 -5 1 -5 -18z"/>
<path d="M13970 11153 c-7 -37 -10 -86 -8 -108 4 -37 5 -36 6 12 1 29 7 75 13
103 6 28 9 54 6 56 -3 3 -10 -25 -17 -63z"/>
<path d="M13507 11125 c-4 -25 -9 -57 -13 -72 -4 -21 -3 -24 5 -13 11 16 26
118 19 126 -3 2 -8 -16 -11 -41z"/>
<path d="M17292 11145 c0 -11 4 -31 8 -45 l8 -25 0 25 c0 14 -3 34 -8 45 l-9
20 1 -20z"/>
<path d="M16856 11005 c4 -22 11 -58 15 -80 7 -34 7 -31 4 17 -3 31 -10 67
-15 80 -8 18 -9 15 -4 -17z"/>
<path d="M12351 11022 c-1 -7 -11 -17 -23 -22 -13 -5 -16 -9 -8 -9 23 -1 43
15 37 30 -4 11 -6 11 -6 1z"/>
<path d="M12880 11021 c0 -6 4 -13 10 -16 6 -3 7 1 4 9 -7 18 -14 21 -14 7z"/>
<path d="M11410 11003 c-14 -7 -18 -13 -10 -13 17 0 47 17 40 23 -3 2 -16 -2
-30 -10z"/>
<path d="M10849 10983 c-13 -17 -13 -17 6 -3 11 8 22 16 24 17 2 2 0 3 -6 3
-6 0 -17 -8 -24 -17z"/>
<path d="M11008 10993 c67 -2 177 -2 245 0 67 1 12 3 -123 3 -135 0 -190 -2
-122 -3z"/>
<path d="M12093 10993 c37 -2 97 -2 135 0 37 2 6 3 -68 3 -74 0 -105 -1 -67
-3z"/>
<path d="M13078 10993 c61 -2 163 -2 225 0 61 1 11 3 -113 3 -124 0 -174 -2
-112 -3z"/>
<path d="M13438 10993 c7 -3 16 -2 19 1 4 3 -2 6 -13 5 -11 0 -14 -3 -6 -6z"/>
<path d="M14158 10993 c72 -2 192 -2 265 0 72 1 13 3 -133 3 -146 0 -205 -2
-132 -3z"/>
<path d="M14580 10996 c0 -2 7 -9 15 -16 9 -7 15 -8 15 -2 0 5 -7 12 -15 16
-8 3 -15 4 -15 2z"/>
<path d="M17322 10965 c0 -31 25 -142 26 -115 1 8 -5 44 -13 80 -7 36 -13 52
-13 35z"/>
<path d="M18897 10983 c-4 -3 -7 -212 -7 -464 0 -251 -3 -464 -6 -473 -6 -14
-76 -16 -700 -16 -649 0 -694 1 -703 18 -6 9 -11 12 -11 7 -1 -34 16 -35 716
-35 563 0 694 2 703 13 7 9 11 160 13 485 2 260 3 472 2 472 0 0 -4 -3 -7 -7z"/>
<path d="M10844 10665 c0 -154 2 -216 3 -137 2 79 2 205 0 280 -1 75 -3 11 -3
-143z"/>
<path d="M14602 10920 c0 -14 2 -19 5 -12 2 6 2 18 0 25 -3 6 -5 1 -5 -13z"/>
<path d="M21473 10865 c0 -44 2 -61 4 -37 2 23 2 59 0 80 -2 20 -4 1 -4 -43z"/>
<path d="M16897 10760 c3 -25 9 -63 13 -85 l7 -40 1 35 c0 19 -6 58 -14 85
l-13 50 6 -45z"/>
<path d="M17363 10705 c0 -22 2 -30 4 -17 2 12 2 30 0 40 -3 9 -5 -1 -4 -23z"/>
<path d="M17371 10650 c1 -8 5 -26 9 -40 l8 -25 1 25 c0 14 -4 32 -9 40 -9 13
-10 13 -9 0z"/>
<path d="M14601 10634 c0 -11 3 -14 6 -6 3 7 2 16 -1 19 -3 4 -6 -2 -5 -13z"/>
<path d="M14602 10555 c0 -16 2 -22 5 -12 2 9 2 23 0 30 -3 6 -5 -1 -5 -18z"/>
<path d="M16931 10546 c-1 -11 -8 -28 -18 -38 -15 -17 -15 -18 0 -18 17 0 33
40 24 62 -3 8 -6 5 -6 -6z"/>
<path d="M15232 10512 c-11 -25 -11 -25 4 -10 9 9 15 21 13 27 -2 6 -10 -2
-17 -17z"/>
<path d="M15578 10493 c7 -3 16 -2 19 1 4 3 -2 6 -13 5 -11 0 -14 -3 -6 -6z"/>
<path d="M17402 10460 c0 -19 2 -27 5 -17 2 9 2 25 0 35 -3 9 -5 1 -5 -18z"/>
<path d="M17412 10405 c0 -11 4 -31 8 -45 l8 -25 0 25 c0 14 -3 34 -8 45 l-9
20 1 -20z"/>
<path d="M9010 10339 c0 -5 5 -7 10 -4 6 3 10 8 10 11 0 2 -4 4 -10 4 -5 0
-10 -5 -10 -11z"/>
<path d="M9068 10343 c6 -2 18 -2 25 0 6 3 1 5 -13 5 -14 0 -19 -2 -12 -5z"/>
<path d="M10678 10343 c7 -3 16 -2 19 1 4 3 -2 6 -13 5 -11 0 -14 -3 -6 -6z"/>
<path d="M10753 10343 c9 -2 25 -2 35 0 9 3 1 5 -18 5 -19 0 -27 -2 -17 -5z"/>
<path d="M17441 10223 c-1 -26 19 -126 25 -121 2 2 -3 35 -10 74 -8 38 -15 59
-15 47z"/>
<path d="M15236 9995 c4 -8 8 -15 10 -15 2 0 4 7 4 15 0 8 -4 15 -10 15 -5 0
-7 -7 -4 -15z"/>
<path d="M17033 9935 c0 -22 2 -30 4 -17 2 12 2 30 0 40 -3 9 -5 -1 -4 -23z"/>
<path d="M17052 9330 c-1 -298 -6 -481 -12 -488 -5 -7 -3 -6 5 1 13 11 15 75
12 487 l-2 475 -3 -475z"/>
<path d="M8996 8853 c-6 -14 -5 -15 5 -6 7 7 10 15 7 18 -3 3 -9 -2 -12 -12z"/>
<path d="M15236 8853 c-6 -14 -5 -15 5 -6 7 7 10 15 7 18 -3 3 -9 -2 -12 -12z"/>
<path d="M15560 8856 c0 -8 7 -17 16 -20 23 -9 24 -4 2 17 -14 13 -18 14 -18
3z"/>
<path d="M6490 8783 l-55 -58 55 52 56 53 1184 3 1185 2 -1185 3 -1186 2 -54
-57z"/>
<path d="M22488 8833 c7 -3 16 -2 19 1 4 3 -2 6 -13 5 -11 0 -14 -3 -6 -6z"/>
<path d="M23708 8833 c18 -2 45 -2 60 0 15 2 0 4 -33 4 -33 0 -45 -2 -27 -4z"/>
<path d="M23820 8748 c-15 -21 -17 -28 -6 -19 16 13 41 51 33 51 -2 0 -14 -15
-27 -32z"/>
<path d="M6375 8653 c-33 -38 -49 -59 -36 -48 26 22 105 115 99 115 -3 0 -31
-30 -63 -67z"/>
<path d="M23734 8648 l-19 -23 23 19 c21 18 27 26 19 26 -2 0 -12 -10 -23 -22z"/>
<path d="M23694 8598 l-19 -23 23 19 c21 18 27 26 19 26 -2 0 -12 -10 -23 -22z"/>
<path d="M6255 8513 c-33 -38 -49 -59 -36 -48 26 22 105 115 99 115 -3 0 -31
-30 -63 -67z"/>
<path d="M23635 8528 l-40 -43 43 40 c39 36 47 45 39 45 -2 0 -21 -19 -42 -42z"/>
<path d="M23574 8458 l-19 -23 23 19 c21 18 27 26 19 26 -2 0 -12 -10 -23 -22z"/>
<path d="M6174 8418 l-19 -23 23 19 c21 18 27 26 19 26 -2 0 -12 -10 -23 -22z"/>
<path d="M6115 8348 l-40 -43 43 40 c39 36 47 45 39 45 -2 0 -21 -19 -42 -42z"/>
<path d="M23494 8368 l-19 -23 23 19 c12 11 22 21 22 23 0 8 -8 2 -26 -19z"/>
<path d="M23454 8318 l-19 -23 23 19 c21 18 27 26 19 26 -2 0 -12 -10 -23 -22z"/>
<path d="M6019 8238 c-29 -35 -46 -57 -36 -49 20 16 101 111 94 111 -2 0 -28
-28 -58 -62z"/>
<path d="M23389 8243 l-34 -38 38 34 c20 19 37 36 37 38 0 8 -8 0 -41 -34z"/>
<path d="M23334 8178 l-19 -23 23 19 c21 18 27 26 19 26 -2 0 -12 -10 -23 -22z"/>
<path d="M5939 8143 l-24 -28 28 24 c15 14 27 26 27 28 0 8 -8 1 -31 -24z"/>
<path d="M5910 8100 c0 -5 5 -10 11 -10 5 0 7 5 4 10 -3 6 -8 10 -11 10 -2 0
-4 -4 -4 -10z"/>
<path d="M15241 7518 c-1 -9 -9 -22 -18 -27 -17 -10 -17 -10 0 -11 19 0 32 22
24 42 -4 8 -6 7 -6 -4z"/>
<path d="M15568 7488 c10 -10 3482 -15 3482 -6 0 5 -785 9 -1745 10 -959 2
-1741 0 -1737 -4z"/>
<path d="M10683 7483 c830 -2 2184 -2 3010 0 826 1 148 2 -1508 2 -1655 0
-2331 -1 -1502 -2z"/>
<path d="M23510 7483 c1579 -2 2407 -6 2414 -13 7 -7 0 -21 -20 -42 -16 -18
-36 -42 -44 -53 -8 -11 6 2 32 30 26 27 46 57 45 65 -2 13 -278 15 -2417 15
l-2415 0 2405 -2z"/>
<path d="M9115 7433 c-36 -45 -27 -39 30 22 13 14 20 25 16 25 -5 0 -26 -21
-46 -47z"/>
<path d="M9020 7320 c-29 -33 -50 -60 -47 -60 3 0 28 27 57 60 29 33 50 60 47
60 -3 0 -28 -27 -57 -60z"/>
<path d="M25814 7318 l-19 -23 23 19 c21 18 27 26 19 26 -2 0 -12 -10 -23 -22z"/>
<path d="M25751 7245 c-37 -40 -47 -55 -38 -55 2 0 23 23 46 50 52 62 48 65
-8 5z"/>
<path d="M8920 7200 c-23 -27 -40 -50 -37 -50 3 0 24 23 47 50 23 28 40 50 37
50 -3 0 -24 -22 -47 -50z"/>
<path d="M25674 7148 c-56 -63 -77 -88 -72 -88 3 0 28 27 57 60 55 63 66 83
15 28z"/>
<path d="M8821 7080 c-29 -33 -46 -57 -39 -54 12 5 103 114 95 114 -2 0 -27
-27 -56 -60z"/>
<path d="M25569 7023 l-24 -28 28 24 c15 14 27 26 27 28 0 8 -8 1 -31 -24z"/>
<path d="M8721 6957 c-42 -49 -43 -50 -7 -17 32 29 64 71 54 70 -2 -1 -23 -24
-47 -53z"/>
<path d="M25524 6968 l-19 -23 23 19 c21 18 27 26 19 26 -2 0 -12 -10 -23 -22z"/>
<path d="M25425 6850 c-42 -49 -84 -94 -93 -99 -9 -6 -12 -11 -5 -11 10 0 38
30 167 178 11 12 17 22 13 22 -3 0 -40 -40 -82 -90z"/>
<path d="M8654 6878 l-19 -23 23 19 c21 18 27 26 19 26 -2 0 -12 -10 -23 -22z"/>
<path d="M8596 6810 c-37 -41 -45 -65 -23 -71 6 -2 2134 -2 4727 1 l4715 5
-4719 2 c-2596 2 -4721 5 -4724 8 -3 2 12 25 32 50 46 56 41 59 -8 5z"/>
<path d="M20140 6739 c0 -5 9 -9 20 -9 11 0 20 2 20 4 0 2 -9 6 -20 9 -11 3
-20 1 -20 -4z"/>
<path d="M21110 6743 c2471 -7 4198 -7 4193 0 -2 4 -1155 6 -2561 5 -1406 -2
-2141 -4 -1632 -5z"/>
<path d="M8248 3053 c7 -3 16 -2 19 1 4 3 -2 6 -13 5 -11 0 -14 -3 -6 -6z"/>
<path d="M16138 2373 c7 -3 16 -2 19 1 4 3 -2 6 -13 5 -11 0 -14 -3 -6 -6z"/>
<path d="M16488 2373 c7 -3 16 -2 19 1 4 3 -2 6 -13 5 -11 0 -14 -3 -6 -6z"/>
<path d="M28678 2373 c7 -3 16 -2 19 1 4 3 -2 6 -13 5 -11 0 -14 -3 -6 -6z"/>
<path d="M29028 2373 c7 -3 16 -2 19 1 4 3 -2 6 -13 5 -11 0 -14 -3 -6 -6z"/>
<path d="M2571 2344 c0 -11 3 -14 6 -6 3 7 2 16 -1 19 -3 4 -6 -2 -5 -13z"/>
<path d="M2571 2144 c0 -11 3 -14 6 -6 3 7 2 16 -1 19 -3 4 -6 -2 -5 -13z"/>
<path d="M15459 2013 c-13 -16 -12 -17 4 -4 16 13 21 21 13 21 -2 0 -10 -8
-17 -17z"/>
<path d="M4944 990 c0 -74 1 -105 3 -67 2 37 2 97 0 135 -2 37 -3 6 -3 -68z"/>
<path d="M15102 1000 c0 -14 2 -19 5 -12 2 6 2 18 0 25 -3 6 -5 1 -5 -13z"/>
<path d="M14722 120 c-7 -11 -8 -20 -3 -20 9 0 24 30 18 36 -1 2 -8 -6 -15
-16z"/>
<path d="M9430 110 c0 -5 5 -10 11 -10 5 0 7 5 4 10 -3 6 -8 10 -11 10 -2 0
-4 -4 -4 -10z"/>
<path d="M26510 110 c0 -5 5 -10 11 -10 5 0 7 5 4 10 -3 6 -8 10 -11 10 -2 0
-4 -4 -4 -10z"/>
</g>
</svg>
